# xmcd
#
# Track frame offsets: 
#        25710
#        32089
#        40403
#        60730
#        73258
#        93218
#        97759
#        122686
#        130257
#        147311
#        148446
#        165278
#        178274
#        215455
#        236387
#        248373
#        257845
#        264386
#        282492
#        318230
#        322208
#        332140
#        337187
#        345311
#
# Disc length: 4719 seconds
#
# Revision: 0
# Processed by: cddbd v1.5.1PL0 Copyright (c) Steve Scherf et al.
# Submitted via: ExactAudioCopy v0.95b2
#
DISCID=78111918
DTITLE=Osaka Monaurail - Eyewitness To The...
DYEAR=2005
DGENRE=Funk
TTITLE0=01. Introduction
TTITLE1=02. What It Is - What It Was
TTITLE2=03. Thankful (For What You've Done)
TTITLE3=04. (She Sure Is) Down And Out
TTITLE4=05. That's My Desire
TTITLE5=06. Thanks
TTITLE6=07. Soulful Strut
TTITLE7=08. Spinning Off The Balance
TTITLE8=09. Pick Up The Pieces One By One
TTITLE9=10. Introduction To The 2nd Half
TTITLE10=11. (I'm Coming Back To) The Coming-Back
TTITLE11=12. Jam 1976
TTITLE12=13. MEDLEY - Back And Alive '77 - Two Houses Make A Happy Hom
TTITLE12=e
TTITLE13=14. Theme From Shaft
TTITLE14=15. Rumble'n Struggle
TTITLE15=16. New New Type Thing
TTITLE16=17. Mother Popcorn
TTITLE17=18. Groovy, Groovy, Groovy
TTITLE18=19. Double-Up, Now
TTITLE19=20. Groovy, Groovy, Groovy (reprise)
TTITLE20=21. Take Me Back To Where I Belong
TTITLE21=22. Jam 1976 (reprise)
TTITLE22=23. Whatever You Do
TTITLE23=24. Grand Finale
EXTD=
EXTT0=01. Introduction
EXTT1=02. What It Is - What It Was
EXTT2=
EXTT3=
EXTT4=
EXTT5=
EXTT6=
EXTT7=
EXTT8=
EXTT9=
EXTT10=
EXTT11=
EXTT12=
EXTT13=
EXTT14=
EXTT15=
EXTT16=
EXTT17=
EXTT18=
EXTT19=
EXTT20=
EXTT21=
EXTT22=
EXTT23=
PLAYORDER=
